<svg width="19" height="19" viewBox="0 0 19 19" fill="none" xmlns="http://www.w3.org/2000/svg">
<path fill-rule="evenodd" clip-rule="evenodd" d="M6.00082 0H13.0908C16.3533 0 18.9991 2.64573 18.9991 5.90829V12.9982C18.9991 16.2608 16.3533 18.9065 13.0908 18.9065H6.00082C2.73826 18.9065 0.0925293 16.2608 0.0925293 12.9982V5.90829C0.0925293 2.64573 2.73826 0 6.00082 0ZM13.0909 17.1341C15.3715 17.1341 17.2267 15.2789 17.2267 12.9983V5.90831C17.2267 3.62771 15.3715 1.7725 13.0909 1.7725H6.0009C3.7203 1.7725 1.8651 3.62771 1.8651 5.90831V12.9983C1.8651 15.2789 3.7203 17.1341 6.0009 17.1341H13.0909Z" fill="#404040"/>
<path fill-rule="evenodd" clip-rule="evenodd" d="M4.81934 9.45319C4.81934 6.84291 6.93568 4.72656 9.54597 4.72656C12.1562 4.72656 14.2726 6.84291 14.2726 9.45319C14.2726 12.0635 12.1562 14.1798 9.54597 14.1798C6.93568 14.1798 4.81934 12.0635 4.81934 9.45319ZM6.59197 9.45312C6.59197 11.0814 7.91779 12.4073 9.54612 12.4073C11.1744 12.4073 12.5003 11.0814 12.5003 9.45312C12.5003 7.82361 11.1744 6.49898 9.54612 6.49898C7.91779 6.49898 6.59197 7.82361 6.59197 9.45312Z" fill="#404040"/>
<circle cx="14.6271" cy="4.37201" r="0.629824" fill="#404040"/>
</svg>
