<svg width="20" height="24" viewBox="0 0 20 24" fill="none" xmlns="http://www.w3.org/2000/svg">
<path d="M9.14688 0.0468769C8.92657 0.112501 8.73438 0.281252 8.35001 0.745314C6.64376 2.80781 5.6547 5.27813 5.51407 7.82344C5.48595 8.41875 5.45313 8.50313 5.26095 8.475C5.19532 8.46563 5.10157 8.3625 4.9797 8.15625C4.88126 7.9875 4.75938 7.77656 4.70313 7.6875C4.53907 7.41094 4.31876 7.29375 3.93438 7.275C3.65782 7.26563 3.56876 7.27969 3.41407 7.36875C3.19376 7.5 2.88907 7.86094 2.44845 8.52656C0.582821 11.3344 0.132821 14.8641 1.23907 17.9719C2.26563 20.8547 4.57188 22.9453 7.55782 23.6906C8.42032 23.9109 8.97344 23.9719 9.97657 23.9766C11.0078 23.9766 11.5141 23.9203 12.3438 23.7188C16.1031 22.7953 18.6578 19.9359 19.2625 15.9609C19.3609 15.3234 19.3703 13.8516 19.2859 13.2188C19.0469 11.4703 18.475 9.91406 17.5516 8.52656C16.8672 7.49531 16.6 7.26563 16.1031 7.26563C15.6766 7.26563 15.3719 7.48594 15.1328 7.96875C14.9453 8.34375 14.7063 8.625 14.5703 8.625C14.4297 8.625 14.3781 8.53125 14.3359 8.17969C14.2844 7.71563 14.0031 6.70313 13.8063 6.24375C13.4313 5.37656 13.0141 4.78594 12.3531 4.18125C11.4531 3.36563 11.1063 2.99063 10.9281 2.64844C10.7219 2.25 10.5766 1.75313 10.5391 1.29844C10.4922 0.745314 10.4266 0.562502 10.1922 0.328127C9.89688 0.0375023 9.5172 -0.0656242 9.14688 0.0468769ZM4.65626 12.5063C4.74532 12.6188 4.75001 12.6984 4.75001 14.2828V15.9375L4.88126 15.9094C5.30782 15.8016 5.65938 15.5484 5.86095 15.1922C6.05782 14.85 6.15157 14.7656 6.34376 14.7656C6.52657 14.7656 6.68126 14.8875 6.7422 15.0844C6.78907 15.2484 6.56876 15.6609 6.25001 15.9984L5.97813 16.2891L6.16563 16.5469C6.42345 16.9031 6.55938 17.1844 6.67188 17.5922C6.80782 18.0938 6.7047 18.3234 6.33907 18.3281C6.11407 18.3281 6.00626 18.1969 5.90313 17.8078C5.80938 17.4469 5.62657 17.1188 5.37813 16.8422L5.19532 16.6406L4.97501 16.6922L4.75001 16.7438V17.4188C4.75001 18.0797 4.74532 18.1031 4.63282 18.2109C4.47813 18.3703 4.22501 18.3703 4.07032 18.2109L3.95313 18.0984V15.3609C3.95313 12.6844 3.95313 12.6188 4.04688 12.5016C4.20157 12.3047 4.50157 12.3047 4.65626 12.5063ZM15.25 12.5063C15.3391 12.6188 15.3438 12.7031 15.3438 14.7563C15.3438 16.8234 15.3484 16.8984 15.4422 17.0953C15.5641 17.3484 15.7375 17.4703 16.0422 17.5313C16.3609 17.5922 16.4453 17.6391 16.5156 17.8125C16.5672 17.9391 16.5672 17.9859 16.5016 18.1172C16.4125 18.3047 16.2906 18.3469 15.9344 18.3188C15.4328 18.2766 14.9688 17.9438 14.725 17.4469L14.5703 17.1328L14.5563 14.8969C14.5469 13.3125 14.5609 12.6281 14.5938 12.5578C14.6594 12.4359 14.8938 12.3375 15.0438 12.3656C15.1047 12.375 15.1984 12.4406 15.25 12.5063ZM9.56876 14.9109C9.92032 15.0844 10.1406 15.3328 10.1406 15.5531C10.1406 15.8953 9.70938 16.0688 9.4797 15.8203C9.31563 15.6422 9.13751 15.5625 8.9172 15.5625C8.75313 15.5625 8.69219 15.5906 8.5422 15.7453L8.35938 15.9281V16.5234C8.35938 16.9922 8.37813 17.1469 8.43438 17.25C8.65001 17.6109 9.15626 17.6297 9.4797 17.2781C9.63438 17.1141 9.86876 17.1141 10.0234 17.2734C10.2859 17.5313 10.0891 17.925 9.56876 18.1828C8.87969 18.5297 8.06407 18.2625 7.69376 17.5641C7.59532 17.3813 7.58595 17.3063 7.58595 16.5469C7.58595 15.6234 7.61876 15.5063 7.97032 15.1641C8.27501 14.8688 8.50938 14.775 8.97344 14.7703C9.23126 14.7656 9.3297 14.7891 9.56876 14.9109ZM13.2156 14.9297C13.3563 15.0188 13.4969 15.1594 13.5859 15.3L13.7266 15.5297L13.7406 16.4297C13.75 16.9734 13.7359 17.4047 13.7078 17.5172C13.6281 17.8031 13.4078 18.075 13.1406 18.2109C12.9344 18.3188 12.8547 18.3281 12.3578 18.3281C11.9219 18.3281 11.7672 18.3094 11.6172 18.2391C10.9656 17.9391 10.75 17.1328 11.1719 16.5609C11.2469 16.4578 11.4203 16.3172 11.5516 16.2422C11.7766 16.1203 11.8516 16.1063 12.3766 16.0875L12.9531 16.0641V15.9188C12.9531 15.6188 12.8875 15.5906 12.2125 15.5625C11.6453 15.5391 11.5938 15.5297 11.4813 15.4266C11.3172 15.2719 11.3172 15.0375 11.4766 14.8781C11.5938 14.7609 11.6031 14.7609 12.2922 14.775C12.9672 14.7891 12.9906 14.7938 13.2156 14.9297Z" fill="#F75C03"/>
<path d="M11.8565 16.9922C11.7346 17.1188 11.7206 17.2547 11.8143 17.3859C11.9034 17.4984 11.9362 17.5078 12.3346 17.5219C12.8549 17.5359 12.9534 17.475 12.9534 17.1328V16.9219H12.4424C12.0487 16.9219 11.9128 16.9359 11.8565 16.9922Z" fill="#F75C03"/>
</svg>
