<svg width="16" height="16" viewBox="0 0 16 16" fill="none" xmlns="http://www.w3.org/2000/svg">
<path d="M7.2813 0.0312471C5.73755 0.181247 4.31255 0.749997 3.06255 1.7125C2.45317 2.18125 1.66255 3.0625 1.2063 3.78125C1.00942 4.09062 0.625049 4.87812 0.487549 5.25312C0.334424 5.67187 0.168799 6.31562 0.0875488 6.8125C-0.00932617 7.42187 -0.00932617 8.57812 0.0875488 9.1875C0.228174 10.05 0.450049 10.7437 0.828174 11.5156C1.24067 12.3562 1.6688 12.9531 2.3563 13.6437C3.04692 14.3312 3.6438 14.7594 4.48442 15.1719C5.2563 15.55 5.95005 15.7719 6.81255 15.9125C7.42192 16.0094 8.57817 16.0094 9.18755 15.9125C10.05 15.7719 10.7438 15.55 11.5157 15.1719C12.3563 14.7594 12.9532 14.3312 13.6438 13.6437C14.3313 12.9531 14.7594 12.3562 15.1719 11.5156C15.4469 10.9562 15.5844 10.5906 15.7344 10.0281C15.9313 9.27812 15.9782 8.86875 15.9782 8C15.9782 7.13125 15.9313 6.72187 15.7344 5.97187C15.5844 5.40937 15.4469 5.04375 15.1719 4.48437C14.7594 3.64375 14.3313 3.04687 13.6438 2.35625C12.9532 1.66875 12.3563 1.24062 11.5157 0.828122C10.7469 0.449997 10.0344 0.224997 9.20317 0.0937471C8.7438 0.0218716 7.7188 -0.0125036 7.2813 0.0312471ZM8.8688 1.51562C11.0782 1.825 12.9594 3.20312 13.9125 5.2125C14.3407 6.1125 14.5313 6.975 14.5313 8C14.5313 8.59687 14.4813 9.02812 14.3469 9.58125C13.7782 11.8969 11.8969 13.7781 9.5813 14.3469C9.02817 14.4812 8.59692 14.5312 8.00005 14.5312C7.40317 14.5312 6.97192 14.4812 6.4188 14.3469C4.10317 13.7781 2.22192 11.8969 1.65317 9.58125C1.5188 9.02812 1.4688 8.59687 1.4688 8C1.4688 7.40312 1.5188 6.97187 1.65317 6.41875C2.22192 4.1 4.10317 2.21875 6.42505 1.65312C6.63442 1.60312 6.93755 1.54062 7.09692 1.51875C7.5063 1.45937 8.44692 1.45625 8.8688 1.51562Z" fill="#00072D"/>
<path d="M7.63759 3.47187C7.32509 3.59062 7.07196 3.93437 7.04071 4.27812C6.99071 4.83749 7.43446 5.32187 8.00009 5.32187C8.75321 5.32187 9.21571 4.49687 8.81884 3.86249C8.57196 3.46562 8.07821 3.30312 7.63759 3.47187Z" fill="#00072D"/>
<path d="M7.7875 6.82812C7.59063 6.8875 7.44062 7.01875 7.35625 7.2L7.28125 7.35937V9.70312C7.28125 11.9187 7.28438 12.0531 7.34062 12.1719C7.55 12.6219 8.1375 12.7375 8.49688 12.3969C8.55313 12.3406 8.62813 12.2406 8.65938 12.1719C8.71563 12.0531 8.71875 11.9187 8.71875 9.70312V7.35937L8.64375 7.2C8.55625 7.01562 8.40938 6.8875 8.2 6.825C8.02188 6.77187 7.9625 6.77187 7.7875 6.82812Z" fill="#00072D"/>
</svg>
