<svg width="24" height="24" viewBox="0 0 24 24" fill="none" xmlns="http://www.w3.org/2000/svg">
<path d="M11.0606 0.122066C7.08951 0.447067 3.55514 2.71191 1.59498 6.19551C-0.0503315 9.12051 -0.360097 12.7006 0.746934 15.9049C1.336 17.601 2.20943 19.0076 3.48912 20.3178C7.0692 23.9893 12.5891 24.9541 17.2051 22.7146C19.6985 21.501 21.7653 19.3682 22.8672 16.8748C24.6852 12.7666 24.0962 8.12011 21.3133 4.57558C20.6583 3.74277 19.3583 2.56465 18.4493 1.98574C17.4387 1.34082 16.1844 0.787302 15.0723 0.497849C14.2294 0.27441 13.6657 0.183004 12.8126 0.116989C12.0508 0.0611305 11.802 0.0611286 11.0606 0.122066ZM12.3962 5.58105C12.6196 5.67246 12.8379 5.8705 12.9547 6.08379C13.0309 6.21582 13.0462 6.5205 13.0665 8.57207L13.0919 10.908L15.4278 10.9334C17.9821 10.9588 17.9008 10.9486 18.2055 11.2736C18.5915 11.6799 18.5915 12.3197 18.2055 12.726C17.9008 13.051 17.9821 13.0408 15.4278 13.0662L13.0919 13.0916L13.0665 15.4275C13.0411 17.9818 13.0512 17.9006 12.7262 18.2053C12.32 18.5912 11.6801 18.5912 11.2739 18.2053C10.9489 17.9006 10.959 17.9818 10.9337 15.4275L10.9083 13.0916L8.57232 13.0662C6.01803 13.0408 6.09928 13.051 5.79459 12.726C5.40865 12.3197 5.40865 11.6799 5.79459 11.2736C6.09928 10.9486 6.01803 10.9588 8.57232 10.9334L10.9083 10.908L10.9337 8.57207C10.959 6.01777 10.9489 6.09902 11.2739 5.79433C11.5735 5.50996 12.0254 5.42363 12.3962 5.58105Z" fill="#F75C03"/>
</svg>
