<svg width="22" height="16" viewBox="0 0 22 16" fill="none" xmlns="http://www.w3.org/2000/svg">
<path d="M3.33962 0.271765C1.95209 0.55174 0.922773 1.62635 0.708675 3.00975C0.671619 3.23621 0.663385 4.63608 0.671619 8.30046C0.688088 13.7188 0.671619 13.3277 0.910421 13.9699C1.18216 14.6987 1.98503 15.5016 2.71379 15.7733C3.3602 16.0162 2.72202 15.9998 11.2036 15.9998C19.6852 15.9998 19.047 16.0162 19.6934 15.7733C20.4263 15.5016 21.2251 14.7028 21.4968 13.9699C21.7356 13.3318 21.7233 13.6982 21.7233 8.11518C21.7233 3.45442 21.715 2.96858 21.6533 2.74213C21.5339 2.3057 21.4145 2.03396 21.2127 1.72516C20.7433 1.00876 20.1381 0.576444 19.2323 0.300586C19.0264 0.23471 18.3759 0.230592 11.3065 0.222358C5.06887 0.218241 3.55783 0.226475 3.33962 0.271765ZM18.9153 1.58929C19.6276 1.77457 20.1793 2.32217 20.3646 3.03034C20.4181 3.24444 20.4263 3.89909 20.4263 8.07812C20.4263 11.1702 20.4098 12.9571 20.3851 13.1012C20.2822 13.6406 19.8746 14.1964 19.4011 14.4517C18.8947 14.7193 19.4341 14.7028 11.2036 14.7028C4.71067 14.7028 3.69782 14.6946 3.49195 14.6411C2.77967 14.4558 2.22795 13.9082 2.04267 13.2C1.95209 12.8377 1.94798 3.39678 2.04267 3.03858C2.22795 2.33452 2.77143 1.77869 3.46725 1.59341C3.80898 1.50283 18.5653 1.49871 18.9153 1.58929Z" fill="#EBE6E6"/>
<path d="M3.68948 2.9027C3.52067 2.97681 3.34774 3.18679 3.31481 3.35971C3.24893 3.73027 3.1707 3.63969 5.49285 5.96183L7.64207 8.11517L5.49285 10.2644C3.16658 12.5989 3.24481 12.5001 3.31892 12.8789C3.35598 13.0806 3.60302 13.3276 3.80476 13.3647C4.18355 13.4388 4.08474 13.517 6.41512 11.1908L8.56845 9.04156L9.72953 10.2026C10.7341 11.2031 10.9153 11.3637 11.0512 11.3884C11.4176 11.4584 11.4176 11.4543 12.6775 10.2026L13.8386 9.04156L15.9919 11.1908C18.3223 13.517 18.2235 13.4388 18.6023 13.3647C18.804 13.3276 19.051 13.0806 19.0881 12.8789C19.1622 12.5001 19.2404 12.5989 16.9142 10.2644L14.765 8.11517L16.9142 5.96183C19.2404 3.63145 19.1622 3.73027 19.0881 3.35148C19.051 3.14973 18.804 2.9027 18.6023 2.86564C18.2152 2.79153 18.4417 2.5939 14.6703 6.35709L11.2035 9.82384L7.75323 6.37768C5.81811 4.44256 4.25766 2.91093 4.19179 2.88623C4.03533 2.82859 3.84182 2.83682 3.68948 2.9027Z" fill="#EBE6E6"/>
</svg>
