<svg width="20" height="20" viewBox="0 0 20 20" fill="none" xmlns="http://www.w3.org/2000/svg">
<path d="M9.27727 0.0587158C8.71867 0.136841 8.26945 0.277466 7.74602 0.543091C6.00774 1.41809 4.9882 3.37122 5.18742 5.4259C5.30852 6.64856 5.71086 7.6134 6.4843 8.53528C6.9218 9.05871 7.59758 9.55871 8.22649 9.82043C10.3202 10.6954 12.6132 9.96106 13.9335 7.9884C14.9765 6.43372 15.1249 4.29309 14.3085 2.64075C13.3866 0.77356 11.414 -0.238159 9.27727 0.0587158ZM10.8905 1.58606C11.7773 1.80872 12.578 2.44934 12.9843 3.26965C13.2695 3.84778 13.3671 4.28918 13.3632 4.98059C13.3554 6.05871 12.9687 7.03137 12.2655 7.7384C11.9374 8.07043 11.7343 8.21887 11.3437 8.41418C10.5038 8.82825 9.49602 8.82825 8.65617 8.41418C8.26555 8.21887 8.06242 8.07043 7.7343 7.7384C6.25774 6.25012 6.26164 3.59778 7.74211 2.28528C8.56633 1.55872 9.7382 1.297 10.8905 1.58606Z" fill="#F75C03"/>
<path d="M9.21873 11.293C6.23435 11.418 3.87888 12.3438 2.47263 13.9453C1.3906 15.1758 0.808572 16.7305 0.70701 18.6562C0.660135 19.5352 0.730447 19.75 1.11326 19.9258C1.2656 19.9961 1.59373 20 9.99998 20C18.4062 20 18.7344 19.9961 18.8867 19.9258C19.2695 19.75 19.3398 19.5352 19.2929 18.6562C19.0664 14.3594 16.3867 11.8086 11.6211 11.3516C10.832 11.2773 10.0429 11.2578 9.21873 11.293ZM11.25 12.7734C14.0351 13.0234 15.832 13.8945 16.8828 15.5039C17.3594 16.2344 17.7148 17.3008 17.7969 18.2305L17.8242 18.5547H9.99998H2.17576L2.2031 18.2344C2.21873 18.0547 2.27342 17.7148 2.3242 17.4805C2.71482 15.668 3.70701 14.3867 5.3281 13.6094C6.23045 13.1758 7.21482 12.9258 8.55467 12.793C9.16404 12.7305 10.6523 12.7227 11.25 12.7734Z" fill="#F75C03"/>
</svg>
