<svg width="24" height="24" viewBox="0 0 24 24" fill="none" xmlns="http://www.w3.org/2000/svg">
<path d="M15.3984 0.0609398C15.2719 0.0984402 15.0469 0.182816 14.9062 0.257816C14.7656 0.328129 12.2625 1.77657 9.34218 3.47344L4.04062 6.5625H2.94374C1.74374 6.5625 1.54687 6.59063 1.10155 6.84375C0.590617 7.13438 0.154679 7.75313 0.0468669 8.33907C-0.0140707 8.67657 -0.0187582 21.8109 0.0468669 22.1906C0.187492 23.0672 0.932804 23.8125 1.80937 23.9531C1.9828 23.9813 5.67187 24 11.4844 24C21.8062 24 21.2578 24.0141 21.7781 23.7141C22.2516 23.4469 22.5984 23.0203 22.8094 22.4719C22.8844 22.2656 22.8937 22.0359 22.9125 20.3391L22.9312 18.4359L23.0906 18.3563C23.3531 18.2344 23.7047 17.8688 23.8453 17.5828L23.9766 17.3203V15.2813V13.2422L23.85 12.975C23.7047 12.6609 23.3953 12.3328 23.1234 12.2063L22.9312 12.1172L22.9125 10.2188C22.8891 8.20313 22.8844 8.16563 22.6453 7.69219C22.5094 7.42969 22.0594 6.98907 21.7687 6.83438C21.6422 6.76406 21.3891 6.67031 21.2109 6.62344L20.8875 6.53907L19.3031 3.77344C17.7141 0.989065 17.4937 0.656254 17.0906 0.37969C16.6359 0.0656281 15.9047 -0.0703106 15.3984 0.0609398ZM16.3359 1.2C16.5234 1.28907 16.8422 1.59844 16.7953 1.64532C16.7719 1.66407 14.8687 2.775 12.5578 4.12032L8.36249 6.5625H7.31249C6.67499 6.5625 6.28124 6.54375 6.30937 6.52032C6.4078 6.42188 15.4031 1.21407 15.5812 1.14844C15.8016 1.06875 16.1016 1.0875 16.3359 1.2ZM17.6391 3.06094L17.9016 3.51563L17.7984 3.58125C17.7422 3.61875 16.5656 4.30313 15.1875 5.10469L12.6844 6.5625H11.6297C11.0531 6.5625 10.5937 6.54844 10.6125 6.52969C10.6547 6.4875 17.3625 2.57813 17.3719 2.59219C17.3766 2.59688 17.4937 2.80782 17.6391 3.06094ZM19.0266 5.48907C19.3406 6.03282 19.5937 6.49688 19.5937 6.52032C19.5937 6.54375 18.5812 6.5625 17.2406 6.5625C15.9469 6.5625 14.9016 6.54844 14.9203 6.53438C14.9672 6.48281 18.3891 4.5 18.4266 4.5C18.4453 4.5 18.7172 4.94532 19.0266 5.48907ZM21.0516 7.69688C21.2953 7.76719 21.6 8.03907 21.7078 8.26875C21.7875 8.44688 21.7969 8.61094 21.7969 10.2281V12H20.0531C19.0641 12 18.1734 12.0234 18.0047 12.0516C16.8281 12.2391 15.8062 13.1297 15.4359 14.2828C14.8828 16.0219 15.8719 17.8734 17.6484 18.4172C18.0141 18.5297 18.0703 18.5297 19.9125 18.5531L21.7969 18.5719V20.3391C21.7969 22.1016 21.7969 22.1109 21.6891 22.3172C21.5437 22.5891 21.2531 22.8094 20.9437 22.8703C20.7656 22.9078 17.9484 22.9219 11.2969 22.9125C2.23124 22.8984 1.89374 22.8938 1.73437 22.8094C1.50468 22.6875 1.32187 22.5094 1.20468 22.2891L1.10155 22.1016V15.2813C1.10155 8.67657 1.10624 8.45625 1.19062 8.28282C1.3078 8.04375 1.52343 7.83282 1.7578 7.72969C1.93593 7.64532 2.34374 7.64063 11.4094 7.64063C18.4594 7.64063 20.9203 7.65469 21.0516 7.69688ZM22.5422 13.1391C22.6312 13.1719 22.7484 13.2563 22.8 13.3266C22.8937 13.4578 22.8984 13.5047 22.8984 15.2531C22.8984 16.7391 22.8844 17.0719 22.8281 17.175C22.6922 17.4375 22.6922 17.4375 20.3484 17.4375C17.9578 17.4375 17.8922 17.4281 17.3953 17.1141C16.2094 16.35 16.0312 14.7234 17.0297 13.725C17.3062 13.4484 17.8312 13.1813 18.1969 13.125C18.6234 13.0641 22.3594 13.0734 22.5422 13.1391Z" fill="#0E6BA8"/>
<path d="M18.0703 14.3016C17.8125 14.4375 17.6906 14.5594 17.5734 14.7984C17.4421 15.0703 17.4421 15.4828 17.5687 15.7313C17.7656 16.1156 18.0515 16.3078 18.4734 16.3453C18.7078 16.3688 18.7875 16.3547 19.0078 16.2469C19.7015 15.9047 19.8421 15.0047 19.2796 14.475C18.9843 14.1938 18.4265 14.1141 18.0703 14.3016Z" fill="#0E6BA8"/>
</svg>
