<svg width="21" height="20" viewBox="0 0 21 20" fill="none" xmlns="http://www.w3.org/2000/svg">
<g clip-path="url(#clip0_31_14)">
<path fill-rule="evenodd" clip-rule="evenodd" d="M16.9684 3.34007C15.2082 1.58386 12.8672 0.616264 10.3733 0.615234C5.23432 0.615234 1.05195 4.78306 1.04988 9.90566C1.04919 11.5432 1.47846 13.1417 2.29437 14.5507L0.97168 19.3652L5.91416 18.0732C7.27601 18.8135 8.8092 19.2036 10.3695 19.2041H10.3734C15.5118 19.2041 19.6946 15.0359 19.6966 9.9131C19.6976 7.43042 18.7287 5.09617 16.9684 3.34007ZM10.3733 17.635H10.3701C8.97962 17.6344 7.61593 17.262 6.42599 16.5586L6.14314 16.3911L3.2102 17.1579L3.99305 14.3082L3.80873 14.016C3.03301 12.7865 2.62338 11.3654 2.62407 9.90623C2.62568 5.64846 6.10203 2.18445 10.3764 2.18445C12.4462 2.18513 14.3919 2.98943 15.8549 4.44912C17.3179 5.90881 18.1232 7.84904 18.1225 9.91253C18.1207 14.1706 14.6445 17.635 10.3733 17.635ZM14.6239 11.8513C14.391 11.735 13.2456 11.1736 13.032 11.096C12.8186 11.0185 12.6631 10.9799 12.508 11.2122C12.3526 11.4445 11.9062 11.9675 11.7703 12.1224C11.6343 12.2773 11.4986 12.2968 11.2656 12.1805C11.0326 12.0644 10.282 11.8191 9.39211 11.0282C8.69965 10.4126 8.23214 9.6524 8.09618 9.42009C7.96044 9.18754 8.09503 9.07402 8.19838 8.9463C8.45056 8.63422 8.70309 8.30704 8.78072 8.1522C8.85847 7.99724 8.81954 7.86163 8.7612 7.74547C8.70309 7.62932 8.2372 6.48663 8.04312 6.02165C7.85387 5.56915 7.66198 5.63026 7.51889 5.62317C7.38315 5.61642 7.22778 5.61504 7.0724 5.61504C6.91714 5.61504 6.66473 5.67306 6.45113 5.90561C6.23765 6.13804 5.63591 6.6996 5.63591 7.84229C5.63591 8.98498 6.47066 10.0889 6.5871 10.2438C6.70355 10.3988 8.22985 12.7437 10.5667 13.7492C11.1225 13.9886 11.5563 14.1313 11.8948 14.2383C12.4529 14.415 12.9606 14.39 13.362 14.3303C13.8097 14.2636 14.7402 13.7686 14.9345 13.2264C15.1286 12.6841 15.1286 12.2193 15.0702 12.1224C15.0121 12.0256 14.8568 11.9675 14.6239 11.8513Z" fill="white"/>
</g>
<defs>
<clipPath id="clip0_31_14">
<rect width="20" height="20" fill="white" transform="translate(0.664062)"/>
</clipPath>
</defs>
</svg>
