<svg width="22" height="12" viewBox="0 0 22 12" fill="none" xmlns="http://www.w3.org/2000/svg">
<path d="M20.9875 5.19922H0.676999C0.303271 5.19922 0 5.52864 0 5.93445C0 6.34026 0.303327 6.66968 0.676999 6.66968H20.9875C21.3612 6.66968 21.6645 6.34026 21.6645 5.93445C21.6645 5.52864 21.3612 5.19922 20.9875 5.19922Z" fill="#F75C03"/>
<path d="M14.4295 10.3477H0.889157C0.515429 10.3477 0.212158 10.6771 0.212158 11.0829C0.212158 11.4888 0.515485 11.8181 0.889157 11.8181H14.4295C14.8032 11.8181 15.1065 11.4887 15.1065 11.0829C15.1065 10.677 14.8032 10.3477 14.4295 10.3477Z" fill="#F75C03"/>
<path d="M14.4295 0H0.889157C0.515429 0 0.212158 0.329419 0.212158 0.735234C0.212158 1.14111 0.515485 1.47047 0.889157 1.47047H14.4295C14.8032 1.47047 15.1065 1.14105 15.1065 0.735234C15.1065 0.329358 14.8032 0 14.4295 0Z" fill="#F75C03"/>
</svg>
