<svg width="18" height="24" viewBox="0 0 18 24" fill="none" xmlns="http://www.w3.org/2000/svg">
<path d="M8.3438 0.731205C5.75161 1.05933 3.74068 2.69058 2.95786 5.09527C2.70005 5.87808 2.66255 6.24371 2.63911 8.13277L2.61099 9.87183L2.29693 9.92339C1.53286 10.0406 0.951613 10.5187 0.651613 11.2734L0.539113 11.5546L0.525051 16.3828C0.515676 19.8421 0.525051 21.3 0.567238 21.5296C0.707863 22.3921 1.34536 23.0625 2.1938 23.2453C2.37193 23.2828 4.2938 23.2968 9.01411 23.2968C16.1157 23.2968 15.8297 23.3062 16.35 23.0578C16.8797 22.8 17.3251 22.1718 17.4329 21.5296C17.475 21.3 17.4844 19.8421 17.475 16.3828L17.461 11.5546L17.3485 11.2734C17.0485 10.5187 16.4672 10.0406 15.7032 9.92339L15.3891 9.87183L15.361 8.13277C15.3376 6.24371 15.3 5.87808 15.0422 5.09527C14.5219 3.49683 13.3969 2.17027 11.925 1.42027C11.3907 1.14371 10.7719 0.92808 10.2141 0.820269C9.82974 0.745268 8.67193 0.689018 8.3438 0.731205ZM10.0219 2.22183C11.6063 2.55933 12.9282 3.65152 13.561 5.15621C13.8797 5.90621 13.8891 5.98589 13.9079 8.02495L13.9266 9.89058H9.00005H4.07349L4.09224 8.02495C4.1063 6.29527 4.11568 6.14058 4.20943 5.80777C4.4813 4.84214 4.91724 4.12027 5.62505 3.44995C6.41724 2.70464 7.27974 2.31089 8.50786 2.13745C8.77036 2.09995 9.67974 2.15152 10.0219 2.22183ZM15.7032 11.3859C15.7922 11.4328 15.9094 11.5453 15.961 11.6296C16.0547 11.7843 16.0547 11.8734 16.0547 16.5937C16.0547 21.3 16.0547 21.4031 15.961 21.5531C15.9094 21.6375 15.7829 21.7453 15.6797 21.7968C15.4875 21.8906 15.3657 21.8906 9.00005 21.8906C2.63443 21.8906 2.51255 21.8906 2.32036 21.7968C2.21724 21.7453 2.09068 21.6375 2.03911 21.5531C1.94536 21.4031 1.94536 21.3 1.94536 16.5937C1.94536 11.8453 1.94536 11.789 2.03911 11.625C2.09536 11.5359 2.20786 11.4234 2.29693 11.3812C2.45161 11.3015 2.8688 11.2968 9.00005 11.2968C15.2907 11.2968 15.5485 11.3015 15.7032 11.3859Z" fill="#F75C03"/>
<path d="M8.43757 13.4907C8.26882 13.5329 8.03913 13.6267 7.92194 13.697C6.99382 14.2407 6.62819 15.4454 7.08757 16.4204C7.28913 16.8423 7.62663 17.1938 8.01101 17.3767L8.29226 17.5079L8.29694 18.3751C8.29694 19.1063 8.31101 19.2704 8.38132 19.4063C8.61101 19.8704 9.38913 19.8704 9.61882 19.4063C9.68913 19.2704 9.70319 19.1063 9.70319 18.3751L9.70788 17.5079L9.98913 17.3767C10.6032 17.086 11.0485 16.4157 11.0954 15.7173C11.1704 14.6251 10.5282 13.7204 9.51101 13.4767C9.12663 13.3876 8.81726 13.3923 8.43757 13.4907ZM9.43132 14.9579C9.82038 15.2345 9.76882 15.947 9.34694 16.1485C9.15476 16.2376 8.84538 16.2376 8.65319 16.1485C8.25944 15.961 8.17976 15.286 8.52194 14.986C8.73757 14.7892 9.17819 14.7798 9.43132 14.9579Z" fill="#F75C03"/>
</svg>
