<svg width="24" height="24" viewBox="0 0 24 24" fill="none" xmlns="http://www.w3.org/2000/svg">
<path d="M2.25945 0.140625C1.42507 0.360937 0.703198 0.942186 0.332885 1.69219C-0.0233647 2.41406 7.27536e-05 1.68281 7.27536e-05 12C7.27536e-05 19.95 0.00944775 21.3047 0.0703853 21.5859C0.300073 22.6734 1.17664 23.5781 2.2782 23.8594C2.62507 23.9484 2.81726 23.9531 7.40632 23.9531H12.1688L12.4079 23.8359C12.7454 23.6672 12.9048 23.4141 12.9282 23.0156C12.9469 22.6359 12.8204 22.3594 12.5204 22.1484L12.3188 22.0078L7.53289 21.9844L2.74226 21.9609L2.55476 21.8578C2.32039 21.7312 2.17976 21.5859 2.08601 21.3656C2.02507 21.2109 2.0157 20.1891 2.0157 12C2.0157 3.81094 2.02507 2.78906 2.08601 2.63437C2.17976 2.41406 2.32039 2.26875 2.55476 2.14219L2.74226 2.03906L7.53289 2.01562L12.3188 1.99219L12.5204 1.85156C12.8204 1.64062 12.9469 1.36406 12.9282 0.984375C12.9048 0.585938 12.7454 0.332811 12.4079 0.164062L12.1688 0.046875L7.38757 0.0515614C2.83132 0.0515614 2.58289 0.0562496 2.25945 0.140625Z" fill="#D0011A"/>
<path d="M16.6689 5.06242C16.0361 5.26399 15.7502 6.02805 16.1158 6.54836C16.1861 6.6468 17.2033 7.67336 18.3752 8.83586C19.547 9.99367 20.5173 10.9593 20.522 10.978C20.5314 11.0015 17.883 11.0155 14.6392 11.0155H8.73765L8.5314 11.1187C8.27359 11.2546 8.08609 11.489 8.0064 11.7749C7.8939 12.2015 8.1189 12.6655 8.5314 12.8765L8.73765 12.9843H14.6392C17.883 12.9843 20.5314 12.9984 20.522 13.0218C20.5173 13.0405 19.547 14.0062 18.3752 15.164C17.2033 16.3265 16.1861 17.353 16.1158 17.4515C15.5486 18.2577 16.5142 19.3218 17.4048 18.8577C17.5923 18.764 23.7939 12.6374 23.897 12.4452C24.0002 12.2577 24.0002 11.7421 23.897 11.5546C23.7939 11.3577 17.5923 5.23586 17.4002 5.13742C17.2127 5.03899 16.8517 5.00149 16.6689 5.06242Z" fill="#D0011A"/>
</svg>
