<svg width="21" height="20" viewBox="0 0 21 20" fill="none" xmlns="http://www.w3.org/2000/svg">
<g clip-path="url(#clip0_133_2872)">
<path fill-rule="evenodd" clip-rule="evenodd" d="M16.9681 3.34007C15.2079 1.58386 12.867 0.616264 10.373 0.615234C5.23408 0.615234 1.05171 4.78306 1.04964 9.90566C1.04895 11.5432 1.47821 13.1417 2.29413 14.5507L0.971436 19.3652L5.91391 18.0732C7.27577 18.8135 8.80896 19.2036 10.3692 19.2041H10.3732C15.5115 19.2041 19.6944 15.0359 19.6963 9.9131C19.6974 7.43042 18.7285 5.09617 16.9681 3.34007ZM10.373 17.635H10.3698C8.97937 17.6344 7.61568 17.262 6.42574 16.5586L6.1429 16.3911L3.20996 17.1579L3.9928 14.3082L3.80849 14.016C3.03276 12.7865 2.62314 11.3654 2.62383 9.90623C2.62543 5.64846 6.10179 2.18445 10.3761 2.18445C12.446 2.18513 14.3916 2.98943 15.8547 4.44912C17.3177 5.90881 18.1229 7.84904 18.1222 9.91253C18.1204 14.1706 14.6443 17.635 10.373 17.635ZM14.6236 11.8513C14.3907 11.735 13.2453 11.1736 13.0317 11.096C12.8184 11.0185 12.6629 10.9799 12.5077 11.2122C12.3524 11.4445 11.906 11.9675 11.77 12.1224C11.6341 12.2773 11.4983 12.2968 11.2653 12.1805C11.0323 12.0644 10.2817 11.8191 9.39187 11.0282C8.6994 10.4126 8.2319 9.6524 8.09593 9.42009C7.9602 9.18754 8.09478 9.07402 8.19814 8.9463C8.45032 8.63422 8.70285 8.30704 8.78048 8.1522C8.85822 7.99724 8.81929 7.86163 8.76095 7.74547C8.70285 7.62932 8.23695 6.48663 8.04288 6.02165C7.85363 5.56915 7.66173 5.63026 7.51865 5.62317C7.38291 5.61642 7.22753 5.61504 7.07216 5.61504C6.9169 5.61504 6.66449 5.67306 6.45089 5.90561C6.23741 6.13804 5.63566 6.6996 5.63566 7.84229C5.63566 8.98498 6.47041 10.0889 6.58686 10.2438C6.7033 10.3988 8.2296 12.7437 10.5664 13.7492C11.1222 13.9886 11.5561 14.1313 11.8945 14.2383C12.4526 14.415 12.9603 14.39 13.3618 14.3303C13.8094 14.2636 14.74 13.7686 14.9343 13.2264C15.1283 12.6841 15.1283 12.2193 15.07 12.1224C15.0119 12.0256 14.8565 11.9675 14.6236 11.8513Z" fill="#404040"/>
</g>
<defs>
<clipPath id="clip0_133_2872">
<rect width="20" height="20" fill="white" transform="translate(0.663818)"/>
</clipPath>
</defs>
</svg>
