<svg width="12" height="11" viewBox="0 0 12 11" fill="none" xmlns="http://www.w3.org/2000/svg">
<path d="M5.14408 0.890734L5.14408 1.78148L4.83595 1.83286C4.14265 1.95277 3.32097 2.29965 2.60628 2.77071C2.20827 3.03194 1.32668 3.91411 1.06562 4.31238C0.599144 5.01897 0.312411 5.69559 0.132668 6.50069C0.0470756 6.87754 0.0385164 7.07025 0.021398 8.59478L0 10.2778H0.85592H1.71612L1.73324 8.65902C1.74608 7.18587 1.75892 7.01458 1.84023 6.70196C2.16976 5.44293 2.97004 4.44941 4.10414 3.87985C4.37803 3.74282 4.7632 3.59722 5.02853 3.53726L5.14408 3.51157V6.03819L5.14408 8.56481H6L6.85592 8.56481L6.85592 6.03391C6.85592 3.6486 6.8602 3.50728 6.93295 3.5287C6.97147 3.54154 7.08702 3.57152 7.18545 3.59722C7.50642 3.67858 7.98145 3.90127 8.34522 4.1368C9.22682 4.71064 9.87732 5.63136 10.1598 6.70196C10.2411 7.01458 10.2539 7.18587 10.2668 8.65902L10.2839 10.2778H11.1441H12L11.9786 8.59478C11.9615 7.07025 11.9529 6.87754 11.8673 6.50069C11.5977 5.27592 11.1013 4.37661 10.2154 3.49016C9.48359 2.75786 8.82454 2.33819 7.9087 2.03414C7.66904 1.95277 7.33524 1.86284 7.16405 1.83286L6.85592 1.78148L6.85592 0.890734V-6.67572e-06H6L5.14408 -6.67572e-06V0.890734Z" fill="#0E6BA8"/>
</svg>
