<svg width="152" height="152" viewBox="0 0 152 152" fill="none" xmlns="http://www.w3.org/2000/svg">
<path d="M69.172 0.296875C54.5063 1.72188 40.9688 7.125 29.0938 16.2688C23.3048 20.7219 15.7938 29.0937 11.4595 35.9219C9.58916 38.8609 5.9376 46.3422 4.63135 49.9047C3.17666 53.8828 1.60322 59.9984 0.831348 64.7187C-0.0889648 70.5078 -0.0889648 81.4922 0.831348 87.2812C2.16729 95.475 4.2751 102.066 7.86729 109.398C11.786 117.384 15.8532 123.055 22.3845 129.616C28.9454 136.147 34.6157 140.214 42.6017 144.133C49.9345 147.725 56.5251 149.833 64.7188 151.169C70.5079 152.089 81.4923 152.089 87.2813 151.169C95.4751 149.833 102.066 147.725 109.399 144.133C117.384 140.214 123.055 136.147 129.616 129.616C136.147 123.055 140.214 117.384 144.133 109.398C146.745 104.084 148.052 100.611 149.477 95.2672C151.347 88.1422 151.792 84.2531 151.792 76C151.792 67.7469 151.347 63.8578 149.477 56.7328C148.052 51.3891 146.745 47.9156 144.133 42.6016C140.214 34.6156 136.147 28.9453 129.616 22.3844C123.055 15.8531 117.384 11.7859 109.399 7.86719C102.095 4.27499 95.3267 2.1375 87.4298 0.890625C83.0657 0.207809 73.3282 -0.118759 69.172 0.296875ZM83.0657 12.2016C97.5532 13.775 110.794 20.2172 121.303 30.6969C133.624 43.0172 140.125 58.6922 140.125 76C140.125 93.3078 133.624 108.983 121.303 121.303C108.983 133.623 93.3079 140.125 76.0001 140.125C58.6923 140.125 43.0173 133.623 30.697 121.303C18.3767 108.983 11.8751 93.3078 11.8751 76C11.8751 58.6922 18.3767 43.0172 30.697 30.6969C41.0579 20.3359 54.447 13.8047 68.5782 12.2016C71.8438 11.8453 79.7407 11.8156 83.0657 12.2016Z" fill="#2BAD3F"/>
<path d="M104.263 48.7469C103.372 49.2219 97.6126 55.3969 84.8767 69.4391L66.708 89.4187L57.3267 80.0672C48.9845 71.725 47.797 70.6562 46.6095 70.3594C43.908 69.6469 41.2064 70.8641 39.9595 73.3875C39.0392 75.2281 38.9798 76.5938 39.7814 78.3156C40.5236 79.9188 62.3439 102.244 64.1845 103.223C65.6392 104.025 67.4798 104.114 69.172 103.431C70.122 103.045 74.2189 98.7109 91.022 80.2156C105.064 64.7781 111.892 57.0297 112.308 56.1391C114.445 51.3297 108.894 46.2531 104.263 48.7469Z" fill="#2BAD3F"/>
</svg>
