<svg width="22" height="24" viewBox="0 0 22 24" fill="none" xmlns="http://www.w3.org/2000/svg">
<path d="M4.78902 0.0938892C4.3109 0.281389 4.28746 0.31889 2.41715 3.56264C1.45621 5.2267 0.645271 6.67983 0.612458 6.79233C0.556208 6.96576 0.546833 8.34389 0.546833 14.7376C0.546833 23.3158 0.528083 22.7814 0.851521 23.2736C0.945271 23.4142 1.1234 23.5923 1.26402 23.6861C1.7609 24.0236 1.02965 24.0001 11 24.0001C20.9703 24.0001 20.239 24.0236 20.7359 23.6861C20.8765 23.5923 21.0546 23.4142 21.1484 23.2736C21.4718 22.7814 21.4531 23.3205 21.4531 14.6626V6.8392L21.3546 6.64233C21.2984 6.53451 20.4828 5.1142 19.5453 3.49233C17.7078 0.309515 17.689 0.276703 17.1968 0.0938892C16.9531 0.000139236 16.8265 0.000139236 10.9859 0.0048275C5.20152 0.0048275 5.01402 0.00951385 4.78902 0.0938892ZM10.2968 3.67983V5.95326H6.49527C3.10152 5.95326 2.69371 5.94389 2.72183 5.88295C2.74527 5.82201 4.15621 3.35639 5.00933 1.88451L5.29058 1.40639H7.79371H10.2968V3.67983ZM18.0031 3.63295C18.7015 4.84233 19.2921 5.8642 19.3109 5.89233C19.3437 5.9392 18.5796 5.95326 15.5515 5.95326H11.75V3.67983V1.40639L14.239 1.41576L16.7281 1.42983L18.0031 3.63295ZM20.0468 14.8923C20.0468 21.8345 20.0421 22.4298 19.9671 22.5095C19.8968 22.5892 19.5546 22.5939 11.0093 22.5939C2.80621 22.5939 2.11715 22.5892 2.03746 22.5142C1.95777 22.4439 1.95308 22.1439 1.95308 14.897V7.35951H11H20.0468V14.8923Z" fill="#2BAD3F"/>
<path d="M13.3906 12.5202C13.325 12.5437 12.5469 13.2937 11.6563 14.1843L10.0391 15.7968L9.40625 15.1593C9.05938 14.8124 8.71719 14.4937 8.64688 14.4562C8.35157 14.3015 7.94844 14.428 7.76563 14.728C7.65313 14.9108 7.64375 15.2296 7.7375 15.4124C7.82188 15.5624 9.62188 17.3577 9.76719 17.4327C9.89375 17.4983 10.1563 17.4983 10.3297 17.4327C10.4797 17.3765 14.2063 13.6827 14.3094 13.4905C14.3469 13.4202 14.375 13.2655 14.375 13.1483C14.375 12.7546 14.1406 12.5062 13.7469 12.4827C13.6156 12.478 13.4563 12.4921 13.3906 12.5202Z" fill="#2BAD3F"/>
</svg>
