<svg width="21" height="21" viewBox="0 0 21 21" fill="none" xmlns="http://www.w3.org/2000/svg">
<path d="M0.566875 0.566583C0.745563 0.387593 0.957791 0.245593 1.19142 0.148708C1.42504 0.0518225 1.67547 0.00195313 1.92839 0.00195312C2.18131 0.00195312 2.43174 0.0518225 2.66537 0.148708C2.89899 0.245593 3.11122 0.387593 3.28991 0.566583L19.6169 16.8936C19.7955 17.0724 19.9372 17.2846 20.0338 17.5181C20.1305 17.7517 20.1802 18.002 20.18 18.2547C20.1799 18.5075 20.1301 18.7578 20.0332 18.9912C19.9364 19.2247 19.7946 19.4368 19.6158 19.6155C19.437 19.7941 19.2247 19.9358 18.9912 20.0324C18.7576 20.1291 18.5073 20.1787 18.2546 20.1786C18.0018 20.1785 17.7516 20.1286 17.5181 20.0318C17.2846 19.935 17.0725 19.7931 16.8939 19.6143L0.56463 3.28962C0.38564 3.11093 0.24364 2.8987 0.146755 2.66507C0.0498694 2.43145 0 2.18102 0 1.9281C0 1.67518 0.0498694 1.42475 0.146755 1.19112C0.24364 0.957499 0.38564 0.745271 0.56463 0.566583H0.566875Z" fill="#0E6BA8"/>
<path d="M19.6169 0.566874C19.7959 0.745563 19.9379 0.957791 20.0348 1.19142C20.1317 1.42504 20.1816 1.67547 20.1816 1.92839C20.1816 2.18131 20.1317 2.43174 20.0348 2.66537C19.9379 2.89899 19.7959 3.11122 19.6169 3.28991L3.28996 19.6169C2.92886 19.9777 2.43923 20.1803 1.92877 20.18C1.41831 20.1798 0.928847 19.9769 0.568048 19.6158C0.207249 19.2547 0.00467248 18.765 0.00488298 18.2546C0.00509347 17.7441 0.208074 17.2546 0.56917 16.8938L16.8939 0.564629C17.0726 0.38564 17.2848 0.24364 17.5184 0.146755C17.7521 0.0498694 18.0025 0 18.2554 0C18.5083 0 18.7588 0.0498694 18.9924 0.146755C19.226 0.24364 19.4382 0.38564 19.6169 0.564629V0.566874Z" fill="#0E6BA8"/>
</svg>
