<svg width="19" height="19" viewBox="0 0 19 19" fill="none" xmlns="http://www.w3.org/2000/svg">
<path fill-rule="evenodd" clip-rule="evenodd" d="M6.00094 0H13.0909C16.3534 0 18.9992 2.64573 18.9992 5.90829V12.9982C18.9992 16.2608 16.3534 18.9065 13.0909 18.9065H6.00094C2.73838 18.9065 0.0926514 16.2608 0.0926514 12.9982V5.90829C0.0926514 2.64573 2.73838 0 6.00094 0ZM13.091 17.1341C15.3716 17.1341 17.2268 15.2789 17.2268 12.9983V5.90831C17.2268 3.62771 15.3716 1.7725 13.091 1.7725H6.00103C3.72043 1.7725 1.86522 3.62771 1.86522 5.90831V12.9983C1.86522 15.2789 3.72043 17.1341 6.00103 17.1341H13.091Z" fill="white"/>
<path fill-rule="evenodd" clip-rule="evenodd" d="M4.81934 9.45329C4.81934 6.843 6.93568 4.72665 9.54597 4.72665C12.1562 4.72665 14.2726 6.843 14.2726 9.45329C14.2726 12.0636 12.1562 14.1799 9.54597 14.1799C6.93568 14.1799 4.81934 12.0636 4.81934 9.45329ZM6.59197 9.45321C6.59197 11.0815 7.91779 12.4074 9.54612 12.4074C11.1744 12.4074 12.5003 11.0815 12.5003 9.45321C12.5003 7.82371 11.1744 6.49907 9.54612 6.49907C7.91779 6.49907 6.59197 7.82371 6.59197 9.45321Z" fill="white"/>
<circle cx="14.6273" cy="4.37216" r="0.629824" fill="white" fill-opacity="0.8"/>
</svg>
